# Alias OBJ Model File
# Exported from SketchUp, (c) 2000-2012 Trimble Navigation Limited
# File units = inches

mtllib templosur.mtl

g Mesh1 Model

usemtl _1
v 139.377 0 -46.6573
vt 0.377968 0
vn 1 0 -0
v 139.377 68.9375 -41.0323
vt 0.331093 1.0213
v 139.377 0 -41.0323
vt 0.331093 0
f 1/1/1 2/2/1 3/3/1

v 139.377 68.9375 -46.6573
vt 0.377968 1.0213
f 2/2/1 1/1/1 4/4/1

usemtl BackColor
vt 41.0323 0
vn -1 -0 0
vt 41.0323 68.9375
vt 46.6573 0
f 3/5/2 2/6/2 1/7/2

usemtl _1
v 134.68 4.69734 -41.0323
vt 1.0708 0.0695902
vn 0 0 1
vt 1.10994 0
vt 1.10994 1.0213
f 5/8/3 3/9/3 2/10/3

v 48.5644 0 -41.0323
vt 0.353171 0
f 3/9/3 5/8/3 6/11/3

usemtl BackColor
vt 48.5644 0
vn -0 -0 -1
vt 134.68 4.69734
vt 139.377 0
f 6/12/4 5/13/4 3/14/4

usemtl _1
v 53.2618 4.69734 -41.0323
vt 0.392316 0.0695902
f 7/15/3 6/11/3 5/8/3

v 48.5644 68.9375 -41.0323
vt 0.353171 1.0213
f 6/11/3 7/15/3 8/16/3

usemtl BackColor
vt 48.5644 68.9375
vt 53.2618 4.69734
f 8/17/4 7/18/4 6/12/4

usemtl _1
v 53.2618 64.2402 -41.0323
vt 0.392316 0.951706
f 8/16/3 7/15/3 9/19/3

usemtl BackColor
vt 53.2618 64.2402
f 9/20/4 7/18/4 8/17/4

usemtl _2
vt 0.161887 0.0710529
v 134.68 64.2402 -41.0323
vt 0.840369 0.953169
vt 0.161887 0.953169
f 7/21/3 10/22/3 9/23/3

vt 0.840369 0.0710529
f 10/22/3 7/21/3 5/24/3

usemtl BackColor
vt 134.68 64.2402
f 5/13/4 7/18/4 10/25/4

f 5/13/4 6/12/4 7/18/4

f 9/20/4 10/25/4 7/18/4

usemtl _1
vt 1.0708 0.951706
f 10/26/3 2/10/3 9/19/3

f 5/8/3 2/10/3 10/26/3

usemtl BackColor
vt 139.377 68.9375
f 2/27/4 3/14/4 5/13/4

f 10/25/4 2/27/4 5/13/4

f 9/20/4 2/27/4 10/25/4

usemtl _1
f 8/16/3 9/19/3 2/10/3

usemtl BackColor
f 2/27/4 9/20/4 8/17/4

usemtl _1
vt 1.10994 0.588609
vn 0 1 -0
v 48.5644 68.9375 -46.6573
vt 0.353171 0.671942
vt 0.353171 0.588609
f 2/28/5 11/29/5 8/30/5

vt 1.10994 0.671942
f 11/29/5 2/28/5 4/31/5

usemtl BackColor
vt 48.5644 41.0323
vn -0 -1 0
vt 48.5644 46.6573
vt 139.377 41.0323
f 8/32/6 11/33/6 2/34/6

usemtl _1
vt -0.377968 1.0213
vn -1 0 -0
vt -0.331093 0
vt -0.331093 1.0213
f 11/35/7 6/36/7 8/37/7

v 48.5644 0 -46.6573
vt -0.377968 0
f 6/36/7 11/35/7 12/38/7

usemtl BackColor
vt -41.0323 68.9375
vn 1 -0 0
vt -41.0323 0
vt -46.6573 68.9375
f 8/39/8 6/40/8 11/41/8

vt -46.6573 0
f 12/42/8 11/41/8 6/40/8

usemtl _1
vt -0.353171 1.0213
vn 0 0 -1
vt -1.10994 0
vt -0.353171 0
f 11/43/9 1/44/9 12/45/9

vt -1.10994 1.0213
f 1/44/9 11/43/9 4/46/9

usemtl BackColor
vt -48.5644 0
vn -0 -0 1
vt -139.377 0
vt -48.5644 68.9375
f 12/47/10 1/48/10 11/49/10

usemtl _1
vt -1.10994 0.671942
vn 0 -1 -0
vt -0.353171 0.588609
vt -0.353171 0.671942
f 1/50/11 6/51/11 12/52/11

vt -1.10994 0.588609
f 6/51/11 1/50/11 3/53/11

usemtl BackColor
vt -48.5644 46.6573
vn -0 1 0
vt -48.5644 41.0323
vt -139.377 46.6573
f 12/54/12 6/55/12 1/56/12

vt -139.377 41.0323
f 3/57/12 1/56/12 6/55/12

vt -139.377 68.9375
f 4/58/10 11/49/10 1/48/10

vt 139.377 46.6573
f 4/59/6 2/34/6 11/33/6

vt 46.6573 68.9375
f 4/60/2 1/7/2 2/6/2

