# Alias OBJ Model File
# Exported from SketchUp, (c) 2000-2012 Trimble Navigation Limited
# File units = inches

mtllib edificio4.mtl

g Mesh1 Model

usemtl _1
v 150.442 60 -60.7261
vt 1.15838 0.588609
vn 0 1 -0
v 53.8174 60 -66.3511
vt 0.353171 0.671942
v 53.8174 60 -60.7261
vt 0.353171 0.588609
f 1/1/1 2/2/1 3/3/1

v 150.442 60 -66.3511
vt 1.15838 0.671942
f 2/2/1 1/1/1 4/4/1

usemtl BackColor
vt 53.8174 60.7261
vn -0 -1 0
vt 53.8174 66.3511
vt 150.442 60.7261
f 3/5/2 2/6/2 1/7/2

usemtl _1
vt -0.377968 0.888889
vn -1 0 -0
v 53.8174 0 -60.7261
vt -0.331093 0
vt -0.331093 0.888889
f 2/8/3 5/9/3 3/10/3

v 53.8174 0 -66.3511
vt -0.377968 0
f 5/9/3 2/8/3 6/11/3

usemtl BackColor
vt -60.7261 60
vn 1 -0 0
vt -60.7261 0
vt -66.3511 60
f 3/12/4 5/13/4 2/14/4

usemtl _1
vt 0.353171 0
vn 0 0 1
v 58.5147 4.69734 -60.7261
vt 0.392316 0.0695902
vt 0.353171 0.888889
f 5/15/5 7/16/5 3/17/5

v 145.745 4.69734 -60.7261
vt 1.11924 0.0695902
f 7/16/5 5/15/5 8/18/5

usemtl BackColor
vt 53.8174 60
vn -0 -0 -1
vt 58.5147 4.69734
vt 53.8174 0
f 3/19/6 7/20/6 5/21/6

usemtl _1
v 58.5147 55.3027 -60.7261
vt 0.392316 0.819299
f 3/17/5 7/16/5 9/22/5

usemtl BackColor
vt 58.5147 55.3027
f 9/23/6 7/20/6 3/19/6

usemtl _
vt 0.147891 0.143094
v 145.745 55.3027 -60.7261
vt 0.874811 0.892803
vt 0.147891 0.892803
f 7/24/5 10/25/5 9/26/5

vt 0.874811 0.143094
f 10/25/5 7/24/5 8/27/5

usemtl BackColor
vt 145.745 4.69734
vt 145.745 55.3027
f 8/28/6 7/20/6 10/29/6

f 8/28/6 5/21/6 7/20/6

usemtl _1
v 150.442 0 -60.7261
vt 1.15838 0
f 11/30/5 8/18/5 5/15/5

vt 1.15838 0.888889
f 8/18/5 11/30/5 1/31/5

usemtl BackColor
vt 150.442 0
f 5/21/6 8/28/6 11/32/6

vt 150.442 60
f 1/33/6 11/32/6 8/28/6

usemtl _1
v 150.442 0 -66.3511
vt 0.377968 -2.06244e-15
vn 1 9.4739e-16 -0
vt 0.331093 0.888889
vt 0.331093 -2.06244e-15
f 12/34/7 1/35/7 11/36/7

vt 0.377968 0.888889
f 1/35/7 12/34/7 4/37/7

usemtl BackColor
vt 60.7261 -1.42528e-13
vn -1 -9.4739e-16 0
vt 60.7261 60
vt 66.3511 -1.42528e-13
f 11/38/8 1/39/8 12/40/8

vt 66.3511 60
f 4/41/8 12/40/8 1/39/8

usemtl _1
vt -1.15838 0
vn 0 0 -1
vt -0.353171 0.888889
vt -1.15838 0.888889
f 12/42/9 2/43/9 4/44/9

vt -0.353171 0
f 2/43/9 12/42/9 6/45/9

usemtl BackColor
vt -53.8174 0
vn -0 -0 1
vt -150.442 0
vt -53.8174 60
f 6/46/10 12/47/10 2/48/10

usemtl _1
vt -1.15838 0.671942
vn 0 -1 -0
vt -0.353171 0.588609
vt -0.353171 0.671942
f 12/49/11 5/50/11 6/51/11

vt -1.15838 0.588609
f 5/50/11 12/49/11 11/52/11

usemtl BackColor
vt -53.8174 66.3511
vn -0 1 0
vt -53.8174 60.7261
vt -150.442 66.3511
f 6/53/12 5/54/12 12/55/12

vt -66.3511 0
f 6/56/4 2/14/4 5/13/4

vt -150.442 60.7261
f 11/57/12 12/55/12 5/54/12

vt -150.442 60
f 4/58/10 2/48/10 12/47/10

vt 150.442 66.3511
f 4/59/2 1/7/2 2/6/2

usemtl _1
vt 1.11924 0.819299
f 8/18/5 1/31/5 10/60/5

usemtl BackColor
f 10/29/6 1/33/6 8/28/6

usemtl _1
f 10/60/5 1/31/5 9/22/5

usemtl BackColor
f 9/23/6 1/33/6 10/29/6

usemtl _1
f 3/17/5 9/22/5 1/31/5

usemtl BackColor
f 1/33/6 9/23/6 3/19/6

f 9/23/6 10/29/6 7/20/6

