# Alias OBJ Model File
# Exported from SketchUp, (c) 2000-2012 Trimble Navigation Limited
# File units = inches

mtllib palacio.mtl

g Mesh1 Model

usemtl _2
v 133.743 48.4277 -56.1868
vt 0.821992 0.804224
vn 0 0 1
v 51.513 4.69734 -56.1868
vt 0.136739 0.156367
v 133.743 4.69734 -56.1868
vt 0.821992 0.156367
f 1/1/1 2/2/1 3/3/1

v 51.513 48.4277 -56.1868
vt 0.136739 0.804224
f 2/2/1 1/1/1 4/4/1

usemtl BackColor
vt 133.743 4.69734
vn -0 -0 -1
vt 51.513 4.69734
vt 133.743 48.4277
f 3/5/2 2/6/2 1/7/2

usemtl _1
vt 0.392316 0.0695902
v 46.8156 0 -56.1868
vt 0.353171 0
vt 1.07757 0.0695902
f 2/8/1 5/9/1 3/10/1

v 46.8156 53.125 -56.1868
vt 0.353171 0.787037
f 5/9/1 2/8/1 6/11/1

usemtl BackColor
vt 46.8156 53.125
vt 46.8156 0
f 6/12/2 2/6/2 5/13/2

usemtl _1
vt 0.392316 0.717447
f 6/11/1 2/8/1 4/14/1

usemtl BackColor
vt 51.513 48.4277
f 4/15/2 2/6/2 6/12/2

f 4/15/2 1/7/2 2/6/2

usemtl _1
vt 1.07757 0.717447
v 138.441 53.125 -56.1868
vt 1.11671 0.787037
f 1/16/1 7/17/1 4/14/1

f 3/10/1 7/17/1 1/16/1

v 138.441 0 -56.1868
vt 1.11671 0
f 3/10/1 8/18/1 7/17/1

f 8/18/1 3/10/1 5/9/1

usemtl BackColor
vt 138.441 0
f 5/13/2 3/5/2 8/19/2

f 3/5/2 5/13/2 2/6/2

vt 138.441 53.125
f 7/20/2 8/19/2 3/5/2

usemtl _1
v 138.441 0 -61.8118
vt 0.377968 -2.32662e-15
vn 1 1.06999e-15 -0
vt 0.331093 0.787037
vt 0.331093 -2.32662e-15
f 9/21/3 7/22/3 8/23/3

v 138.441 53.125 -61.8118
vt 0.377968 0.787037
f 7/22/3 9/21/3 10/24/3

usemtl BackColor
vt 56.1868 -1.48131e-13
vn -1 -1.06999e-15 0
vt 56.1868 53.125
vt 61.8118 -1.48131e-13
f 8/25/4 7/26/4 9/27/4

vt 61.8118 53.125
f 10/28/4 9/27/4 7/26/4

usemtl _1
vt -1.11671 0
vn 0 0 -1
v 46.8156 53.125 -61.8118
vt -0.353171 0.787037
vt -1.11671 0.787037
f 9/29/5 11/30/5 10/31/5

v 46.8156 0 -61.8118
vt -0.353171 0
f 11/30/5 9/29/5 12/32/5

usemtl BackColor
vt -46.8156 0
vn -0 -0 1
vt -138.441 0
vt -46.8156 53.125
f 12/33/6 9/34/6 11/35/6

usemtl _1
vt -1.11671 0.671942
vn 0 -1 -0
vt -0.353171 0.588609
vt -0.353171 0.671942
f 9/36/7 5/37/7 12/38/7

vt -1.11671 0.588609
f 5/37/7 9/36/7 8/39/7

usemtl BackColor
vt -46.8156 61.8118
vn -0 1 0
vt -46.8156 56.1868
vt -138.441 61.8118
f 12/40/8 5/41/8 9/42/8

usemtl _1
vt -0.331093 0
vn -1 0 -0
vt -0.377968 0.787037
vt -0.377968 0
f 5/43/9 11/44/9 12/45/9

vt -0.331093 0.787037
f 11/44/9 5/43/9 6/46/9

usemtl BackColor
vt -56.1868 53.125
vn 1 -0 0
vt -56.1868 0
vt -61.8118 53.125
f 6/47/10 5/48/10 11/49/10

vt -61.8118 0
f 12/50/10 11/49/10 5/48/10

usemtl _1
vt 1.11671 0.588609
vn 0 1 -0
vt 0.353171 0.671942
vt 0.353171 0.588609
f 7/51/11 11/52/11 6/53/11

vt 1.11671 0.671942
f 11/52/11 7/51/11 10/54/11

usemtl BackColor
vt 46.8156 56.1868
vn -0 -1 0
vt 46.8156 61.8118
vt 138.441 56.1868
f 6/55/12 11/56/12 7/57/12

vt 138.441 61.8118
f 10/58/12 7/57/12 11/56/12

vt -138.441 53.125
f 10/59/6 11/35/6 9/34/6

usemtl _1
f 6/11/1 4/14/1 7/17/1

usemtl BackColor
f 7/20/2 4/15/2 6/12/2

f 4/15/2 7/20/2 1/7/2

f 1/7/2 7/20/2 3/5/2

vt -138.441 56.1868
f 8/60/8 9/42/8 5/41/8

