# Alias OBJ Model File
# Exported from SketchUp, (c) 2000-2012 Trimble Navigation Limited
# File units = inches

mtllib templo h.mtl

g Mesh1 Model

usemtl _1
v 133.193 0 -45.3561
vt -1.10994 0.671942
vn 0 -1 -0
v 42.3805 0 -39.7311
vt -0.353171 0.588609
v 42.3805 0 -45.3561
vt -0.353171 0.671942
f 1/1/1 2/2/1 3/3/1

v 133.193 0 -39.7311
vt -1.10994 0.588609
f 2/2/1 1/1/1 4/4/1

usemtl BackColor
vt -42.3805 45.3561
vn -0 1 0
vt -42.3805 39.7311
vt -133.193 45.3561
f 3/5/2 2/6/2 1/7/2

usemtl _1
vt -0.331093 0
vn -1 0 -0
v 42.3805 62.75 -45.3561
vt -0.377968 0.92963
vt -0.377968 0
f 2/8/3 5/9/3 3/10/3

v 42.3805 62.75 -39.7311
vt -0.331093 0.92963
f 5/9/3 2/8/3 6/11/3

usemtl BackColor
vt -39.7311 62.75
vn 1 -0 0
vt -39.7311 0
vt -45.3561 62.75
f 6/12/4 2/13/4 5/14/4

usemtl _1
vt 0.353171 0
vn 0 0 1
v 47.0779 4.69734 -39.7311
vt 0.392316 0.0695902
vt 0.353171 0.92963
f 2/15/5 7/16/5 6/17/5

v 128.496 4.69734 -39.7311
vt 1.0708 0.0695902
f 7/16/5 2/15/5 8/18/5

usemtl BackColor
vt 42.3805 62.75
vn -0 -0 -1
vt 47.0779 4.69734
vt 42.3805 0
f 6/19/6 7/20/6 2/21/6

usemtl _1
v 47.0779 58.0527 -39.7311
vt 0.392316 0.860039
f 6/17/5 7/16/5 9/22/5

usemtl BackColor
vt 47.0779 58.0527
f 9/23/6 7/20/6 6/19/6

usemtl _
vt 0.156994 0.110168
v 128.496 58.0527 -39.7311
vt 0.835476 0.900617
vt 0.156994 0.900617
f 7/24/5 10/25/5 9/26/5

vt 0.835476 0.110168
f 10/25/5 7/24/5 8/27/5

usemtl BackColor
vt 128.496 4.69734
vt 128.496 58.0527
f 8/28/6 7/20/6 10/29/6

f 8/28/6 2/21/6 7/20/6

usemtl _1
vt 1.10994 0
f 4/30/5 8/18/5 2/15/5

v 133.193 62.75 -39.7311
vt 1.10994 0.92963
f 8/18/5 4/30/5 11/31/5

usemtl BackColor
vt 133.193 0
f 2/21/6 8/28/6 4/32/6

vt 133.193 62.75
f 11/33/6 4/32/6 8/28/6

usemtl _1
vt 0.377968 0
vn 1 0 -0
vt 0.331093 0.92963
vt 0.331093 0
f 1/34/7 11/35/7 4/36/7

v 133.193 62.75 -45.3561
vt 0.377968 0.92963
f 11/35/7 1/34/7 12/37/7

usemtl BackColor
vt 39.7311 0
vn -1 -0 0
vt 39.7311 62.75
vt 45.3561 0
f 4/38/8 11/39/8 1/40/8

vt 45.3561 62.75
f 12/41/8 1/40/8 11/39/8

usemtl _1
vt -1.10994 0
vn 0 0 -1
vt -0.353171 0.92963
vt -1.10994 0.92963
f 1/42/9 5/43/9 12/44/9

vt -0.353171 0
f 5/43/9 1/42/9 3/45/9

usemtl BackColor
vt -42.3805 0
vn -0 -0 1
vt -133.193 0
vt -42.3805 62.75
f 3/46/10 1/47/10 5/48/10

vt -133.193 62.75
f 12/49/10 5/48/10 1/47/10

usemtl _1
vt 0.353171 0.671942
vn 0 1 -0
vt 1.10994 0.588609
vt 1.10994 0.671942
f 5/50/11 11/51/11 12/52/11

vt 0.353171 0.588609
f 11/51/11 5/50/11 6/53/11

usemtl BackColor
vt 42.3805 39.7311
vn -0 -1 0
vt 42.3805 45.3561
vt 133.193 39.7311
f 6/54/12 5/55/12 11/56/12

vt 133.193 45.3561
f 12/57/12 11/56/12 5/55/12

usemtl _1
f 6/17/5 9/22/5 11/31/5

usemtl BackColor
f 11/33/6 9/23/6 6/19/6

usemtl _1
vt 1.0708 0.860039
f 10/58/5 11/31/5 9/22/5

f 8/18/5 11/31/5 10/58/5

usemtl BackColor
f 10/29/6 11/33/6 8/28/6

f 9/23/6 11/33/6 10/29/6

f 9/23/6 10/29/6 7/20/6

vt -45.3561 0
f 3/59/4 5/14/4 2/13/4

vt -133.193 39.7311
f 4/60/2 1/7/2 2/6/2

